<svg width="333" height="97" viewBox="0 0 333 97" fill="none" xmlns="http://www.w3.org/2000/svg">
<path d="M123.951 18.8308C132.514 18.8308 138.115 23.6798 138.276 31.1962H131.077C130.917 27.2367 128.275 24.7315 123.715 24.7307C118.993 24.7307 116.348 26.8324 116.348 30.4696C116.348 33.1368 118.271 34.9167 122.112 35.8866L128.996 37.5835C135.256 39.1072 138.53 41.9223 138.886 47.1805H131.546C131.089 45.3666 129.621 44.1633 126.356 43.3224L119.471 41.7037C112.509 40.0065 109.227 36.532 109.226 30.7133C109.226 23.4392 115.309 18.8312 123.951 18.8308Z" fill="#6A00FF"/>
<path d="M162.709 18.9136C174.392 18.9145 183.034 27.4808 183.034 39.685C183.034 42.3788 182.61 44.8941 181.828 47.1805H173.736C174.869 45.0659 175.512 42.5284 175.512 39.685C175.512 31.4413 170.23 25.7019 162.709 25.701C155.106 25.701 149.9 31.4407 149.9 39.685C149.9 42.5283 150.535 45.066 151.658 47.1805H143.503C142.72 44.8944 142.301 42.3783 142.301 39.685C142.301 27.4802 150.944 18.9136 162.709 18.9136Z" fill="#6A00FF"/>
<path d="M195.064 42.0256C195.064 44.0273 195.274 45.7368 195.656 47.1805H187.697C187.606 46.3299 187.542 45.4465 187.542 44.5318V19.962H195.064V42.0256Z" fill="#6A00FF"/>
<path d="M222.515 47.1805H214.124C214.744 45.4061 215.075 43.284 215.075 40.8162V19.962H222.515V47.1805Z" fill="#6A00FF"/>
<path d="M289.211 47.1805H281.689V26.3493H264.965V47.1805H257.52V26.3493H240.154V47.1805H232.632V26.3493H226.868V19.962H232.632V13.6575C232.632 3.9586 237.833 0.00013041 245.035 0C246.476 0 248.157 0.0794187 249.598 0.321894V6.87014H246.237C241.356 6.87014 240.154 9.37379 240.154 13.6575V19.962H257.52V13.6575C257.52 3.95845 262.723 0 269.846 0C271.286 2.52734e-05 273.046 0.0796184 274.486 0.321894V6.87014H271.125C266.244 6.87027 264.965 9.3739 264.965 13.6575V19.962H281.689V0H289.211V47.1805Z" fill="#6A00FF"/>
<path fill-rule="evenodd" clip-rule="evenodd" d="M314.44 18.8308C325.565 18.8308 332.849 26.5902 332.849 38.31V41.1381L302.597 41.2209C302.75 43.4919 303.195 45.481 303.895 47.1805H296.391C295.687 44.923 295.312 42.4338 295.312 39.7631C295.313 27.3978 303.077 18.8312 314.44 18.8308ZM314.44 25.2135C307.879 25.2139 303.717 29.1759 302.757 36.1257H325.327C325.326 29.5797 321.082 25.2135 314.44 25.2135Z" fill="#6A00FF"/>
<path d="M110.429 64.3161C110.429 57.1944 116.327 52.2426 124.895 52.2426C133.13 52.2426 138.36 56.8049 138.582 64.1492H131.461C131.294 60.644 128.79 58.5854 124.784 58.5854C120.388 58.5854 117.551 60.6996 117.551 64.0936C117.551 66.9868 119.109 68.6003 122.503 69.3792L128.901 70.7702C135.856 72.2724 139.25 75.8333 139.25 81.8979C139.25 89.4647 133.352 94.3609 124.394 94.3609C115.715 94.3609 110.04 89.7429 109.873 82.4543H116.995C117.05 85.9039 119.832 87.9625 124.394 87.9625C129.124 87.9625 132.128 85.9039 132.128 82.5099C132.128 79.7836 130.737 78.1701 127.399 77.4468L120.945 76.0002C114.046 74.498 110.429 70.5476 110.429 64.3161Z" fill="white"/>
<path d="M169.283 93.6376H144.024V52.9659H169.283V59.5312H151.145V69.9913H167.392V76.2784H151.145V87.0723H169.283V93.6376Z" fill="white"/>
<path d="M192.528 94.3053C180.677 94.3053 172.999 86.0708 172.999 73.3296C172.999 60.6996 180.955 52.2982 192.861 52.2982C202.487 52.2982 209.664 57.9177 211.055 66.653H203.544C202.153 61.9237 198.092 59.1418 192.695 59.1418C185.183 59.1418 180.454 64.5943 180.454 73.2739C180.454 81.8979 185.239 87.4617 192.695 87.4617C198.203 87.4617 202.431 84.5685 203.767 80.0618H211.167C209.609 88.6302 202.153 94.3053 192.528 94.3053Z" fill="white"/>
<path d="M252.995 73.2739C252.995 85.6257 244.872 94.3053 233.188 94.3053C221.559 94.3053 213.547 85.6813 213.547 73.2739C213.547 60.9222 221.615 52.2426 233.243 52.2426C244.872 52.2426 252.995 60.8665 252.995 73.2739ZM245.484 73.2739C245.484 64.5943 240.699 59.0861 233.243 59.0861C225.788 59.0861 221.003 64.5943 221.003 73.2739C221.003 81.9535 225.788 87.4617 233.243 87.4617C240.699 87.4617 245.484 81.8423 245.484 73.2739Z" fill="white"/>
<path d="M264.965 93.6376H257.954V52.9659H265.02L284.104 81.7866V52.9659H291.115V93.6376H284.104L264.965 64.8169V93.6376Z" fill="white"/>
<path d="M313.081 93.6376H298.449V52.9659H312.692C324.71 52.9659 333 61.256 333 73.3852C333 85.3475 324.877 93.6376 313.081 93.6376ZM312.024 59.5312H305.57V87.0723H312.414C320.537 87.0723 325.489 81.8423 325.489 73.3852C325.489 64.7612 320.426 59.5312 312.024 59.5312Z" fill="white"/>
<path d="M46.1674 7.81415C55.4218 7.81415 62.7797 10.509 68.2415 15.8945C73.7792 21.2046 76.5491 28.1463 76.5491 36.7184C76.549 49.5735 69.5857 60.3224 55.6607 68.9676L55.6569 68.9487C55.6569 68.9487 46.9798 72.7218 36.3407 75.0819C25.7617 77.4289 17.9036 82.9004 17.8163 82.9614L17.7784 83.0182C19.482 77.6897 23.3347 73.1699 28.4726 70.517C37.9991 65.598 45.1109 61.1214 49.8079 57.0877C56.3318 51.4742 59.5929 44.8347 59.5929 37.173C59.5928 32.3941 58.4554 28.6376 56.1797 25.9068C53.904 23.101 50.6042 21.698 46.2811 21.698C41.8063 21.6981 38.393 23.1011 36.0415 25.9068C33.7657 28.7135 32.6283 32.4321 32.6283 37.0593C32.6283 42.3694 34.2193 47.3765 37.4052 52.0797H20.2218C17.1879 47.3768 15.6722 42.1422 15.6721 36.3774C15.6721 27.8812 18.442 21.0151 23.9797 15.7808C29.5173 10.4712 36.913 7.81415 46.1674 7.81415Z" fill="white"/>
<path d="M36.504 37.6948C34.8335 26.9733 42.716 25.115 45.989 25.6048C41.8211 37.0936 48.3045 48.0258 52.0672 52.0558H42.1147C41.2462 50.3859 38.1068 47.9813 36.504 37.6948Z" fill="#6A00FF"/>
<path d="M83.6628 15.4805C71.2407 -6.61072 42.5226 -0.428147 32.9182 5.9394C61.9736 -0.779221 70.9669 10.7197 76.0935 18.5168C82 27.5 81.9522 37.6329 78.2744 49.4362C75.3321 58.8787 65.5874 67.7397 61.0828 70.9899C70.8332 66.6279 99.486 43.6201 83.6628 15.4805Z" fill="#6A00FF"/>
<path d="M17.955 87.8274C19.0881 87.8934 21.7104 88.0658 25.2167 88.109C31.1529 88.5656 43.0688 89.1865 53.7788 88.832C47.4916 92.3742 39.9685 94.7945 32.7492 95.2067C20.7842 95.8898 5.93769 95.0605 0.0100797 94.5604C4.33366 92.2198 13.9754 87.596 17.955 87.8274Z" fill="white"/>
<path d="M57.1491 84.8046C56.4018 84.8472 55.6423 84.8837 54.8754 84.915C54.1463 84.9448 53.4086 84.9686 52.6669 84.9889C54.1888 84.9472 55.6913 84.8878 57.1491 84.8046Z" fill="white"/>
<path d="M48.2804 77.474C35.8778 77.7991 28.7324 81.8172 24.4086 84.158C30.3362 84.658 45.1827 85.4874 57.1477 84.8043C72.1039 83.9504 88.3791 74.5035 92.2208 64.2366C80.9903 80.1036 54.6923 77.3059 48.2804 77.474Z" fill="#6A00FF"/>
</svg>
